<svg xmlns="http://www.w3.org/2000/svg" width="262.434" height="63.578" viewBox="0 0 262.434 63.578">
  <g id="logo_size_reduced" transform="translate(0 0)">
    <path id="Path_305296" data-name="Path 305296" d="M255.65,202.521c0-17.647,9.636-31.841,29.162-31.841,12.766,0,24.007,6.081,26.8,18.925l-13.783,3.128c-1.438-6.081-5.33-9.8-12.853-9.8-9.715,0-14.784,6.835-14.784,19.052,0,12.932,5.41,20.362,15.38,20.362,6.673,0,10.82-3.175,12.6-9.963l13.854,2.532c-2.621,11.908-12.766,19.258-26.628,19.258-19.431,0-29.75-14.36-29.75-31.682" transform="translate(-255.65 -170.601)" fill="#00a5ff"/>
    <path id="Path_305297" data-name="Path 305297" d="M94.474,2.13V25.777h25.945V2.13h14.116V62.435H120.419V37.605H94.474v24.83H80.27V2.13Z" transform="translate(-16.561 -0.438)" fill="#00a5ff"/>
    <path id="Path_305298" data-name="Path 305298" d="M415.45,202.079c0-17.9,11.407-31.5,29.925-31.5s29.917,13.6,29.917,31.5c0,17.575-10.645,32.023-29.917,32.023s-29.925-14.448-29.925-32.023m45.559.1c0-12.424-5.918-19.687-15.634-19.687s-15.642,7.264-15.642,19.687c0,12.582,5.831,19.933,15.642,19.933s15.634-7.264,15.634-19.933" transform="translate(-288.622 -170.58)" fill="#00a5ff"/>
    <path id="Path_305299" data-name="Path 305299" d="M527.794,172.7c14.3,0,22.728,6.835,22.728,19.337,0,8.613-4.48,14.606-12.71,17.321L552.261,233H536.58L524.4,211.376h-8.19V233H502V172.67Zm8.452,19.416c0-5.406-3.551-8.1-9.477-8.1H516.212V199.81h10.327c5.926,0,9.731-2.707,9.731-7.692" transform="translate(-306.486 -171.01)" fill="#00a5ff"/>
    <path id="Path_305300" data-name="Path 305300" d="M578.653,235.66c1.279,0,2.057.635,2.057,1.771a1.589,1.589,0,0,1-1.319,1.708l1.239,2.439h-.9l-1.152-2.328h-1.787v2.328H576V235.66Zm1.319,1.787c0-.794-.477-1.12-1.374-1.12h-1.8v2.24h1.914c.794,0,1.247-.381,1.247-1.12" transform="translate(-321.701 -184.006)" fill="#00a5ff"/>
    <path id="Path_305301" data-name="Path 305301" d="M577.45,244.858c-3.471,0-5.72-2.892-5.72-7.356s2.248-7.412,5.72-7.412,5.807,2.979,5.807,7.412-2.336,7.356-5.807,7.356m0-13.743c-2.892,0-4.695,2.447-4.695,6.355s1.843,6.355,4.695,6.355,4.766-2.542,4.766-6.355-1.922-6.355-4.766-6.355" transform="translate(-320.823 -182.86)" fill="#00a5ff"/>
  </g>
</svg>
