<svg xmlns="http://www.w3.org/2000/svg" width="347.711" height="63.574" viewBox="0 0 347.711 63.574"><path d="M118.567,642.2a14.863,14.863,0,0,0,5.223-11.414c0-9.806-8.142-15.593-18.512-15.593H84.734a.515.515,0,0,0-.5.528v57.608a.518.518,0,0,0,.5.528h22.7c11.37,0,19.36-7.234,19.36-17.68a15.178,15.178,0,0,0-8.218-13.985ZM97.519,627.811h7.45c3.687,0,5.839,2.172,5.839,5.063,0,2.651-1.92,4.5-4.915,4.743l-8.374.08Zm9.45,32.709h-9.45V649.67h9.6c3.379,0,5.915,2.008,5.915,5.383S110.96,660.52,106.969,660.52Z" transform="translate(-84.23 -611.175)" fill="#273470"/><path d="M266.16,651.37H253.947a.515.515,0,0,0-.484.372l-7.11,23.739-7.11-23.739a.511.511,0,0,0-.484-.372H226.9a.515.515,0,0,0-.484.372l-7.11,23.739-7.11-23.739a.511.511,0,0,0-.484-.372H199.5a.526.526,0,0,0-.48.7l14.021,43.143a.508.508,0,0,0,.48.36h11.414a.511.511,0,0,0,.48-.36l7.41-23.027,7.41,23.027a.508.508,0,0,0,.48.36h11.414a.511.511,0,0,0,.48-.36l14.021-43.143a.526.526,0,0,0-.48-.7Z" transform="translate(-153.097 -632.886)" fill="#273470"/><path d="M415.766,650.164H405.425a.513.513,0,0,0-.5.464l-.712,5.887a14.616,14.616,0,0,0-12.369-7.154c-10.91,0-19.664,10.286-19.664,22.823s8.758,22.823,19.664,22.823a14.734,14.734,0,0,0,12.369-7.071l.712,5.967a.516.516,0,0,0,.5.464h10.342a.515.515,0,0,0,.5-.528V650.7a.518.518,0,0,0-.5-.528Zm-21.543,31.985a9.64,9.64,0,0,1-9.45-9.966c0-5.547,4.147-10.046,9.45-10.046a9.832,9.832,0,0,1,9.6,10.046A9.714,9.714,0,0,1,394.223,682.149Z" transform="translate(-257.025 -631.68)" fill="#273470"/><path d="M527.227,622.83a14.173,14.173,0,0,0-11.985,6.67V605.678a.518.518,0,0,0-.5-.528H503.3a.515.515,0,0,0-.5.528V667.3a.518.518,0,0,0,.5.528h10.342a.513.513,0,0,0,.5-.464l.712-5.967a14.514,14.514,0,0,0,12.369,7.07c10.83,0,19.664-10.286,19.664-22.823s-8.834-22.823-19.664-22.823Zm-2.379,32.789a10.014,10.014,0,0,1,0-20.012c5.379,0,9.45,4.5,9.45,10.046S530.15,655.619,524.847,655.619Z" transform="translate(-335.408 -605.15)" fill="#273470"/><path d="M647.918,662.256a.5.5,0,0,0-.6-.372,8.776,8.776,0,0,1-2.375.336c-4.3,0-6.607-2.492-6.607-7.954v-13.1h8.942a.515.515,0,0,0,.5-.528V630.2a.518.518,0,0,0-.5-.528h-8.942V615.738a.518.518,0,0,0-.5-.528h-9.194a.512.512,0,0,0-.5.46l-1.784,14.009h-5.487a.515.515,0,0,0-.5.528v10.434a.517.517,0,0,0,.5.528h5.027V654.35c0,15.753,8.218,20.411,17.132,20.411a20.259,20.259,0,0,0,7.41-1.272.53.53,0,0,0,.3-.636l-2.812-10.594Z" transform="translate(-405.955 -611.187)" fill="#273470"/><path d="M721.733,649.754c-11.985,0-21.663,10.286-21.663,22.743s9.294,22.9,22.739,22.9c6.714,0,14-3.107,18.152-8.218a.544.544,0,0,0-.12-.784l-9.09-6.047a.487.487,0,0,0-.62.068c-1.948,1.9-4.367,2.923-8.318,2.923-4.687,0-8.218-2.491-9.37-5.947h29.2a.515.515,0,0,0,.5-.476c.136-1.416.26-3.275.26-4.427,0-12.457-9.526-22.743-21.663-22.743Zm-8.218,17.44c.768-2.812,3.687-5.383,8.3-5.383s7.91,2.571,8.682,5.383H713.519Z" transform="translate(-453.788 -631.914)" fill="#273470"/><path d="M877.743,671.3l-28.058-28.49,16.453-17.64a.531.531,0,0,0-.364-.9l-15.281.016a.5.5,0,0,0-.364.164L838.7,636.919V612.668a.518.518,0,0,0-.5-.528H827.894a.515.515,0,0,0-.5.528v58.911a.518.518,0,0,0,.5.528H838.2a.515.515,0,0,0,.5-.528V648.8l22.907,23.047a.51.51,0,0,0,.344.148l15.432.216a.532.532,0,0,0,.36-.908Z" transform="translate(-530.191 -609.345)" fill="#273470"/></svg>